<svg width="16" height="16" viewBox="0 0 16 16" fill="none" xmlns="http://www.w3.org/2000/svg">
<g id="material-symbols:inventory-2-outline-rounded">
<path id="Vector" d="M3.33334 14.6663C2.96668 14.6663 2.6529 14.5359 2.39201 14.275C2.13112 14.0141 2.00045 13.7001 2.00001 13.333V5.81634C1.80001 5.69412 1.6389 5.5359 1.51668 5.34167C1.39445 5.14745 1.33334 4.92234 1.33334 4.66634V2.66634C1.33334 2.29967 1.46401 1.9859 1.72534 1.72501C1.98668 1.46412 2.30045 1.33345 2.66668 1.33301H13.3333C13.7 1.33301 14.014 1.46367 14.2753 1.72501C14.5367 1.98634 14.6671 2.30012 14.6667 2.66634V4.66634C14.6667 4.9219 14.6056 5.14701 14.4833 5.34167C14.3611 5.53634 14.2 5.69434 14 5.81567V13.333C14 13.6997 13.8696 14.0137 13.6087 14.275C13.3478 14.5363 13.0338 14.6668 12.6667 14.6663H3.33334ZM3.33334 5.99967V13.333H12.6667V5.99967H3.33334ZM2.66668 4.66634H13.3333V2.66634H2.66668V4.66634ZM6.66668 9.33301H9.33334C9.52223 9.33301 9.68068 9.26901 9.80868 9.14101C9.93668 9.01301 10.0005 8.85479 10 8.66634C10 8.47745 9.93601 8.31923 9.80801 8.19167C9.68001 8.06412 9.52179 8.00012 9.33334 7.99967H6.66668C6.47779 7.99967 6.31957 8.06367 6.19201 8.19167C6.06446 8.31967 6.00045 8.4779 6.00001 8.66634C6.00001 8.85523 6.06401 9.01367 6.19201 9.14167C6.32001 9.26967 6.47823 9.33345 6.66668 9.33301Z" fill="#006299"/>
</g>
</svg>
