<svg width="16" height="16" viewBox="0 0 16 16" fill="none" xmlns="http://www.w3.org/2000/svg">
<g id="clarity:storage-line" clip-path="url(#clip0_168_4293)">
<path id="Vector" d="M14.6667 2.97327C14.5867 1.45772 10.4578 1.04883 8.00001 1.04883C5.54223 1.04883 1.33334 1.46216 1.33334 3.01327V13.0533C1.33334 14.6044 5.52445 15.0222 8.00001 15.0222C10.4756 15.0222 14.6667 14.6088 14.6667 13.0533V3.01327V2.97327ZM13.7778 6.33327C13.6311 6.7155 11.5289 7.42216 8.00001 7.42216C6.34942 7.46428 4.70175 7.26057 3.11112 6.81772V7.74216C4.7097 8.14017 6.35275 8.33136 8.00001 8.31105C9.77779 8.31105 12.4133 8.09772 13.7778 7.42216V9.71994C13.6311 10.1022 11.5289 10.8088 8.00001 10.8088C6.34853 10.8452 4.70085 10.6355 3.11112 10.1866V11.1111C4.7097 11.5091 6.35275 11.7002 8.00001 11.6799C9.77779 11.6799 12.4133 11.4666 13.7778 10.7911V13.0577C13.6222 13.4399 11.52 14.1466 8.00001 14.1466C4.48001 14.1466 2.35557 13.4222 2.22223 13.0533V3.03105C2.35557 2.66661 4.44445 1.93772 8.00001 1.93772C11.4533 1.93772 13.5378 2.61772 13.7778 2.99105C13.5467 3.37772 11.4622 4.05327 8.00001 4.05327C6.34947 4.09441 4.70194 3.89071 3.11112 3.44883V4.37772C4.71008 4.77321 6.353 4.9629 8.00001 4.94216C9.77779 4.94216 12.4133 4.72883 13.7778 4.05327V6.33327Z" fill="#919191"/>
</g>
<defs>
<clipPath id="clip0_168_4293">
<rect width="16" height="16" fill="white"/>
</clipPath>
</defs>
</svg>
