<svg width="15" height="16" viewBox="0 0 15 16" fill="none" xmlns="http://www.w3.org/2000/svg">
<g id="radix-icons:dashboard">
<path id="Vector" fill-rule="evenodd" clip-rule="evenodd" d="M2.8 1.5H2.75C2.521 1.5 2.324 1.5 2.15 1.541C1.88064 1.60536 1.63435 1.74305 1.43843 1.93879C1.24251 2.13453 1.10461 2.38069 1.04 2.65C1 2.824 1 3.02 1 3.25V5.75C1 5.979 1 6.176 1.041 6.35C1.10536 6.61936 1.24305 6.86565 1.43879 7.06157C1.63453 7.25749 1.88069 7.39539 2.15 7.46C2.324 7.5 2.52 7.5 2.75 7.5H5.25C5.479 7.5 5.676 7.5 5.85 7.459C6.11936 7.39464 6.36565 7.25695 6.56157 7.06121C6.75749 6.86547 6.89539 6.61931 6.96 6.35C7 6.176 7 5.98 7 5.75V3.25C7 3.021 7 2.824 6.959 2.65C6.89464 2.38064 6.75695 2.13435 6.56121 1.93843C6.36547 1.74251 6.11931 1.60461 5.85 1.54C5.676 1.5 5.48 1.5 5.25 1.5H5.2H2.8ZM2.383 2.514C2.426 2.504 2.493 2.5 2.8 2.5H5.2C5.508 2.5 5.574 2.503 5.617 2.514C5.70683 2.53548 5.78895 2.58143 5.85426 2.64674C5.91957 2.71205 5.96552 2.79417 5.987 2.884C5.997 2.926 6 2.992 6 3.3V5.7C6 6.008 5.997 6.074 5.986 6.117C5.96452 6.20683 5.91857 6.28895 5.85326 6.35426C5.78795 6.41957 5.70583 6.46552 5.616 6.487C5.575 6.496 5.509 6.5 5.2 6.5H2.8C2.492 6.5 2.426 6.497 2.383 6.486C2.29317 6.46452 2.21105 6.41857 2.14574 6.35326C2.08043 6.28795 2.03448 6.20583 2.013 6.116C2.004 6.075 2 6.009 2 5.7V3.3C2 2.992 2.003 2.926 2.014 2.883C2.03548 2.79317 2.08143 2.71105 2.14674 2.64574C2.21205 2.58043 2.29417 2.53448 2.384 2.513M9.8 1.5H9.75C9.521 1.5 9.324 1.5 9.15 1.541C8.88064 1.60536 8.63435 1.74305 8.43843 1.93879C8.24251 2.13453 8.10461 2.38069 8.04 2.65C8 2.824 8 3.02 8 3.25V5.75C8 5.979 8 6.176 8.041 6.35C8.10537 6.61936 8.24305 6.86565 8.43879 7.06157C8.63453 7.25749 8.88069 7.39539 9.15 7.46C9.324 7.5 9.52 7.5 9.75 7.5H12.25C12.479 7.5 12.676 7.5 12.85 7.459C13.1194 7.39464 13.3657 7.25695 13.5616 7.06121C13.7575 6.86547 13.8954 6.61931 13.96 6.35C14 6.176 14 5.98 14 5.75V3.25C14 3.021 14 2.824 13.959 2.65C13.8946 2.38064 13.757 2.13435 13.5612 1.93843C13.3655 1.74251 13.1193 1.60461 12.85 1.54C12.676 1.5 12.48 1.5 12.25 1.5H12.2H9.8ZM9.383 2.514C9.426 2.504 9.493 2.5 9.8 2.5H12.2C12.508 2.5 12.574 2.503 12.617 2.514C12.7068 2.53548 12.789 2.58143 12.8543 2.64674C12.9196 2.71205 12.9655 2.79417 12.987 2.884C12.997 2.926 13 2.992 13 3.3V5.7C13 6.008 12.996 6.074 12.986 6.117C12.9645 6.20683 12.9186 6.28895 12.8533 6.35426C12.788 6.41957 12.7058 6.46552 12.616 6.487C12.574 6.497 12.508 6.5 12.2 6.5H9.8C9.492 6.5 9.426 6.497 9.383 6.486C9.29317 6.46452 9.21105 6.41857 9.14574 6.35326C9.08043 6.28795 9.03448 6.20583 9.013 6.116C9.004 6.075 9 6.009 9 5.7V3.3C9 2.992 9.003 2.926 9.014 2.883C9.03548 2.79317 9.08142 2.71105 9.14674 2.64574C9.21205 2.58043 9.29417 2.53448 9.384 2.513M2.75 8.5H5.25C5.479 8.5 5.676 8.5 5.85 8.541C6.11936 8.60537 6.36565 8.74305 6.56157 8.93879C6.75749 9.13453 6.89539 9.38069 6.96 9.65C7 9.824 7 10.02 7 10.25V12.75C7 12.979 7 13.176 6.959 13.35C6.89464 13.6194 6.75695 13.8657 6.56121 14.0616C6.36547 14.2575 6.11931 14.3954 5.85 14.46C5.676 14.5 5.48 14.5 5.25 14.5H2.75C2.521 14.5 2.324 14.5 2.15 14.459C1.88064 14.3946 1.63435 14.257 1.43843 14.0612C1.24251 13.8655 1.10461 13.6193 1.04 13.35C1 13.176 1 12.98 1 12.75V10.25C1 10.021 1 9.824 1.041 9.65C1.10536 9.38064 1.24305 9.13435 1.43879 8.93843C1.63453 8.74251 1.88069 8.60461 2.15 8.54C2.324 8.5 2.52 8.5 2.75 8.5ZM2.8 9.5C2.492 9.5 2.426 9.503 2.383 9.514C2.29317 9.53548 2.21105 9.58142 2.14574 9.64674C2.08043 9.71205 2.03448 9.79417 2.013 9.884C2.004 9.925 2 9.991 2 10.3V12.7C2 13.008 2.003 13.074 2.014 13.117C2.03548 13.2068 2.08143 13.289 2.14674 13.3543C2.21205 13.4196 2.29417 13.4655 2.384 13.487C2.426 13.497 2.492 13.5 2.8 13.5H5.2C5.508 13.5 5.574 13.496 5.617 13.486C5.70683 13.4645 5.78895 13.4186 5.85426 13.3533C5.91957 13.288 5.96552 13.2058 5.987 13.116C5.997 13.074 6 13.008 6 12.7V10.3C6 9.992 5.997 9.926 5.986 9.883C5.96452 9.79317 5.91857 9.71105 5.85326 9.64574C5.78795 9.58043 5.70583 9.53448 5.616 9.513C5.575 9.504 5.509 9.5 5.2 9.5H2.8ZM9.8 8.5H9.75C9.521 8.5 9.324 8.5 9.15 8.541C8.88064 8.60537 8.63435 8.74305 8.43843 8.93879C8.24251 9.13453 8.10461 9.38069 8.04 9.65C8 9.824 8 10.02 8 10.25V12.75C8 12.979 8 13.176 8.041 13.35C8.10537 13.6194 8.24305 13.8657 8.43879 14.0616C8.63453 14.2575 8.88069 14.3954 9.15 14.46C9.324 14.501 9.521 14.501 9.75 14.501H12.25C12.479 14.501 12.676 14.501 12.85 14.46C13.1192 14.3955 13.3653 14.2577 13.561 14.062C13.7567 13.8663 13.8945 13.6202 13.959 13.351C14 13.177 14 12.98 14 12.751V10.25C14 10.021 14 9.824 13.959 9.65C13.8946 9.38064 13.757 9.13435 13.5612 8.93843C13.3655 8.74251 13.1193 8.60461 12.85 8.54C12.676 8.5 12.48 8.5 12.25 8.5H12.2H9.8ZM9.383 9.514C9.426 9.504 9.493 9.5 9.8 9.5H12.2C12.508 9.5 12.574 9.503 12.617 9.514C12.7068 9.53548 12.789 9.58142 12.8543 9.64674C12.9196 9.71205 12.9655 9.79417 12.987 9.884C12.997 9.926 13 9.992 13 10.3V12.7C13 13.008 12.996 13.074 12.986 13.117C12.9645 13.2068 12.9186 13.289 12.8533 13.3543C12.788 13.4196 12.7058 13.4655 12.616 13.487C12.574 13.497 12.508 13.5 12.2 13.5H9.8C9.492 13.5 9.426 13.496 9.383 13.486C9.29317 13.4645 9.21105 13.4186 9.14574 13.3533C9.08043 13.288 9.03448 13.2058 9.013 13.116C9.004 13.075 9 13.009 9 12.7V10.3C9 9.992 9.003 9.926 9.014 9.883C9.03548 9.79317 9.08142 9.71105 9.14674 9.64574C9.21205 9.58043 9.29417 9.53448 9.384 9.513" fill="#919191"/>
</g>
</svg>
