<svg width="16" height="17" viewBox="0 0 16 17" fill="none" xmlns="http://www.w3.org/2000/svg">
<g id="heroicons-outline:document-report">
<path id="Vector" d="M6.00004 11.8333V10.5M8.00004 11.8333V9.16667M10 11.8333V7.83333M11.3334 14.5H4.66671C4.31309 14.5 3.97395 14.3595 3.7239 14.1095C3.47385 13.8594 3.33337 13.5203 3.33337 13.1667V3.83333C3.33337 3.47971 3.47385 3.14057 3.7239 2.89052C3.97395 2.64048 4.31309 2.5 4.66671 2.5H8.39071C8.5675 2.50004 8.73705 2.5703 8.86204 2.69533L12.4714 6.30467C12.5964 6.42966 12.6667 6.5992 12.6667 6.776V13.1667C12.6667 13.5203 12.5262 13.8594 12.2762 14.1095C12.0261 14.3595 11.687 14.5 11.3334 14.5Z" stroke="#006299" stroke-linecap="round" stroke-linejoin="round"/>
</g>
</svg>
