<svg width="16" height="16" viewBox="0 0 16 16" fill="none" xmlns="http://www.w3.org/2000/svg">
<g id="material-symbols:target">
<path id="Vector" d="M8.00001 14.6663C7.07779 14.6663 6.21112 14.4912 5.40001 14.141C4.5889 13.7908 3.88334 13.3159 3.28334 12.7163C2.68334 12.1163 2.20845 11.4108 1.85868 10.5997C1.5089 9.78856 1.33379 8.9219 1.33334 7.99967C1.33334 7.07745 1.50845 6.21079 1.85868 5.39967C2.2089 4.58856 2.68379 3.88301 3.28334 3.28301C3.88334 2.68301 4.5889 2.20812 5.40001 1.85834C6.21112 1.50856 7.07779 1.33345 8.00001 1.33301C8.92223 1.33301 9.7889 1.50812 10.6 1.85834C11.4111 2.20856 12.1167 2.68345 12.7167 3.28301C13.3167 3.88301 13.7918 4.58856 14.142 5.39967C14.4922 6.21079 14.6671 7.07745 14.6667 7.99967C14.6667 8.9219 14.4916 9.78856 14.1413 10.5997C13.7911 11.4108 13.3162 12.1163 12.7167 12.7163C12.1167 13.3163 11.4111 13.7915 10.6 14.1417C9.7889 14.4919 8.92223 14.6668 8.00001 14.6663ZM8.00001 13.333C9.4889 13.333 10.75 12.8163 11.7833 11.783C12.8167 10.7497 13.3333 9.48856 13.3333 7.99967C13.3333 6.51079 12.8167 5.24967 11.7833 4.21634C10.75 3.18301 9.4889 2.66634 8.00001 2.66634C6.51112 2.66634 5.25001 3.18301 4.21668 4.21634C3.18334 5.24967 2.66668 6.51079 2.66668 7.99967C2.66668 9.48856 3.18334 10.7497 4.21668 11.783C5.25001 12.8163 6.51112 13.333 8.00001 13.333ZM8.00001 11.9997C6.8889 11.9997 5.94445 11.6108 5.16668 10.833C4.3889 10.0552 4.00001 9.11079 4.00001 7.99967C4.00001 6.88856 4.3889 5.94412 5.16668 5.16634C5.94445 4.38856 6.8889 3.99967 8.00001 3.99967C9.11112 3.99967 10.0556 4.38856 10.8333 5.16634C11.6111 5.94412 12 6.88856 12 7.99967C12 9.11079 11.6111 10.0552 10.8333 10.833C10.0556 11.6108 9.11112 11.9997 8.00001 11.9997ZM8.00001 10.6663C8.73334 10.6663 9.36112 10.4052 9.88334 9.88301C10.4056 9.36078 10.6667 8.73301 10.6667 7.99967C10.6667 7.26634 10.4056 6.63856 9.88334 6.11634C9.36112 5.59412 8.73334 5.33301 8.00001 5.33301C7.26668 5.33301 6.6389 5.59412 6.11668 6.11634C5.59445 6.63856 5.33334 7.26634 5.33334 7.99967C5.33334 8.73301 5.59445 9.36078 6.11668 9.88301C6.6389 10.4052 7.26668 10.6663 8.00001 10.6663ZM8.00001 9.33301C7.63334 9.33301 7.31957 9.20256 7.05868 8.94167C6.79779 8.68079 6.66712 8.36679 6.66668 7.99967C6.66668 7.63301 6.79734 7.31923 7.05868 7.05834C7.32001 6.79745 7.63379 6.66679 8.00001 6.66634C8.36668 6.66634 8.68068 6.79701 8.94201 7.05834C9.20334 7.31967 9.33379 7.63345 9.33334 7.99967C9.33334 8.36634 9.2029 8.68034 8.94201 8.94167C8.68112 9.20301 8.36712 9.33345 8.00001 9.33301Z" fill="#919191"/>
</g>
</svg>
