<svg width="16" height="17" viewBox="0 0 16 17" fill="none" xmlns="http://www.w3.org/2000/svg">
<g id="mingcute:add-line" clip-path="url(#clip0_152_3028)">
<g id="Group">
<path id="Vector" d="M7.33333 13.8333C7.33333 14.0101 7.40357 14.1797 7.5286 14.3047C7.65362 14.4298 7.82319 14.5 8 14.5C8.17681 14.5 8.34638 14.4298 8.4714 14.3047C8.59643 14.1797 8.66667 14.0101 8.66667 13.8333V9.16667H13.3333C13.5101 9.16667 13.6797 9.09643 13.8047 8.9714C13.9298 8.84638 14 8.67681 14 8.5C14 8.32319 13.9298 8.15362 13.8047 8.0286C13.6797 7.90357 13.5101 7.83333 13.3333 7.83333H8.66667V3.16667C8.66667 2.98986 8.59643 2.82029 8.4714 2.69526C8.34638 2.57024 8.17681 2.5 8 2.5C7.82319 2.5 7.65362 2.57024 7.5286 2.69526C7.40357 2.82029 7.33333 2.98986 7.33333 3.16667V7.83333H2.66667C2.48986 7.83333 2.32029 7.90357 2.19526 8.0286C2.07024 8.15362 2 8.32319 2 8.5C2 8.67681 2.07024 8.84638 2.19526 8.9714C2.32029 9.09643 2.48986 9.16667 2.66667 9.16667H7.33333V13.8333Z" fill="white"/>
</g>
</g>
<defs>
<clipPath id="clip0_152_3028">
<rect width="16" height="16" fill="white" transform="translate(0 0.5)"/>
</clipPath>
</defs>
</svg>
