<svg width="20" height="20" viewBox="0 0 20 20" fill="none" xmlns="http://www.w3.org/2000/svg">
<g id="bell-03">
<path id="Icon" d="M12.4998 15.8337C12.4998 17.2144 11.3805 18.3337 9.99977 18.3337C8.61906 18.3337 7.49977 17.2144 7.49977 15.8337M11.4969 5.19912C11.8598 4.82419 12.0831 4.31334 12.0831 3.75033C12.0831 2.59973 11.1504 1.66699 9.99977 1.66699C8.84917 1.66699 7.91643 2.59973 7.91643 3.75033C7.91643 4.31334 8.13977 4.82419 8.50268 5.19912M14.9998 9.33366C14.9998 8.18439 14.473 7.08219 13.5353 6.26953C12.5976 5.45687 11.3258 5.00033 9.99977 5.00033C8.67368 5.00033 7.40192 5.45687 6.46423 6.26953C5.52655 7.08219 4.99977 8.18439 4.99977 9.33366C4.99977 11.2352 4.52821 12.6258 3.93982 13.6209C3.26922 14.755 2.93391 15.3221 2.94715 15.4575C2.9623 15.6125 2.9902 15.6614 3.11588 15.7533C3.22574 15.8337 3.77769 15.8337 4.88159 15.8337H15.1179C16.2218 15.8337 16.7738 15.8337 16.8837 15.7533C17.0093 15.6614 17.0372 15.6125 17.0524 15.4575C17.0656 15.3221 16.7303 14.755 16.0597 13.6209C15.4713 12.6258 14.9998 11.2352 14.9998 9.33366Z" stroke="#454545" stroke-linecap="round" stroke-linejoin="round"/>
</g>
</svg>
